<svg width="450" height="450" viewBox="0 0 450 450" fill="none" xmlns="http://www.w3.org/2000/svg">
<path d="M205.415 128.824L146.616 147.266L86.48 95.4153L143.676 76.1718L205.415 128.824Z" fill="white"/>
<path d="M257.265 110.917L196.061 59.8684L252.187 39.8232L314.996 90.9161L257.265 110.917Z" fill="white"/>
<path d="M390.205 66.4931L368.182 74.301L306.176 22.1833L351.489 7.60577C364.647 3.37273 378.783 10.39 383.366 23.4304L394.987 56.4931C396.421 60.5746 394.282 65.0474 390.205 66.4931Z" fill="white"/>
<path fill-rule="evenodd" clip-rule="evenodd" d="M225 449.387H78.7147C61.9177 449.387 48.301 435.77 48.301 418.973V225.339H32.4311C29.7219 225.339 27.5256 223.143 27.5256 220.433V127.217C27.5256 112.962 44.2523 105.277 55.0685 114.563L121.961 171.993C123.986 173.731 124.249 176.77 122.553 178.831L84.2909 225.339H127.182L172.281 168.514H231.887L187.104 225.339H234.57L278.563 168.514H338.8L293.701 225.952H341.323L386.738 168.514H417.569C420.278 168.514 422.474 170.71 422.474 173.419V221.046C422.474 223.755 420.278 225.952 417.569 225.952H401.699V419.481C401.699 436.319 388.018 449.953 371.18 449.894L225 449.387ZM171.626 408.184C170.903 411.572 174.537 414.214 177.538 412.482L225 385.079L272.412 412.979C275.412 414.744 279.079 412.101 278.353 408.698L266.771 354.364L304.343 316.792C306.761 314.374 305.227 310.234 301.818 309.975L250.454 306.067L228.637 256.872C227.234 253.708 222.746 253.699 221.33 256.858L199.546 305.454L148.182 309.362C144.772 309.621 143.239 313.761 145.657 316.179L183.229 353.751L171.626 408.184Z" fill="white"/>
</svg>
